# xmcd
#
# Track frame offsets:
# 150
# 13495
# 26024
# 37334
# 48889
# 62567
# 76635
# 90464
# 103653
# 114039
# 124837
# 138265
# 149467
# 160612
# 170673
# 184593
# 196222
# 205575
# 217347
# 231374
# 245248
# 256048
# 269550
# 281240
# 293877
# 306025
# 319150
# 330248
#
# Disc length: 4578 seconds
#
#
# Revision: 0
# Processed by: cddbd v1.5.1PL0 Copyright (c) Steve Scherf et al.
# Submitted via: FreeRIP 2.92 
#
DISCID=9b11e01c
DTITLE=Lefty Frizzell - That's The Way Life Goes
DYEAR=2004
DGENRE=Country
TTITLE0=If You Got The Money I've Got The Time
TTITLE1=I Love You A Thousand Ways
TTITLE2=Look What Thoughts Will Do
TTITLE3=Shine, Shave, Shower (It's Saturday)
TTITLE4=I Want To Be With You Always
TTITLE5=Always Late (With Your Kisses)
TTITLE6=Mom And Dad's Waltz
TTITLE7=Travellin' Blues
TTITLE8=Give Me More, More, More (Of Your Kisses)
TTITLE9=How Long Will It Take (To Stop Lovin You)
TTITLE10=Don't Stay Away
TTITLE11=Forever (and Always)
TTITLE12=I'm An Old, Old Man
TTITLE13=Bring Your Sweet Love Back To Me
TTITLE14=Run Em Off
TTITLE15=I Love You Mostly
TTITLE16=Just Cant Live That Fast
TTITLE17=Cigarettes And Coffee Blues
TTITLE18=The Long Black Veil
TTITLE19=Saginaw, Michigan
TTITLE20=She's Gone, Gone, Gone
TTITLE21=I Can't Get Over You (To Save My Life)
TTITLE22=I Never Go Around Mirrors
TTITLE23=Thats The Way Love Goes
TTITLE24=Railroad Lady
TTITLE25=Lucky Arms
TTITLE26=Life's Like Poetry
TTITLE27=Falling
EXTD=
EXTT0=
EXTT1=
EXTT2=
EXTT3=
EXTT4=
EXTT5=
EXTT6=
EXTT7=
EXTT8=
EXTT9=
EXTT10=
EXTT11=
EXTT12=
EXTT13=
EXTT14=
EXTT15=
EXTT16=
EXTT17=
EXTT18=
EXTT19=
EXTT20=
EXTT21=
EXTT22=
EXTT23=
EXTT24=
EXTT25=
EXTT26=
EXTT27=
PLAYORDER=
